<svg width="385" height="81" viewBox="0 0 385 81" fill="none" xmlns="http://www.w3.org/2000/svg">
<path d="M385 40H0V77H385V40Z" fill="#1F2987"/>
<path d="M27.6807 62.384C26.3154 62.384 25.1421 61.9147 24.1607 60.976C23.2221 59.9947 22.7527 58.8213 22.7527 57.456C22.7527 56.0907 23.2221 54.9387 24.1607 54C25.1421 53.0613 26.3154 52.592 27.6807 52.592C29.0461 52.592 30.1981 53.0613 31.1367 54C32.1181 54.9387 32.6087 56.0907 32.6087 57.456C32.6087 58.8213 32.1181 59.9947 31.1367 60.976C30.1981 61.9147 29.0461 62.384 27.6807 62.384ZM56.7767 63.024C53.8327 63.024 51.1661 62.2773 48.7767 60.784C46.3874 59.2907 44.4887 57.2427 43.0807 54.64C41.7154 51.9947 41.0327 49.008 41.0327 45.68C41.0327 42.352 41.7154 39.3867 43.0807 36.784C44.4887 34.1387 46.3874 32.0693 48.7767 30.576C51.1661 29.0827 53.8327 28.336 56.7767 28.336C59.0807 28.336 61.1501 28.848 62.9847 29.872C64.8194 30.896 66.2061 32.1547 67.1447 33.648H67.4647L67.1447 29.04V16.176H74.1847V62H67.4647V57.776H67.1447C66.2061 59.2267 64.8194 60.464 62.9847 61.488C61.1501 62.512 59.0807 63.024 56.7767 63.024ZM57.8007 56.56C59.5074 56.56 61.0861 56.112 62.5367 55.216C64.0301 54.32 65.2247 53.04 66.1207 51.376C67.0167 49.712 67.4647 47.8133 67.4647 45.68C67.4647 43.5467 67.0167 41.6693 66.1207 40.048C65.2247 38.384 64.0301 37.104 62.5367 36.208C61.0861 35.312 59.5074 34.864 57.8007 34.864C56.0941 34.864 54.4941 35.312 53.0007 36.208C51.5074 37.104 50.3127 38.384 49.4167 40.048C48.5207 41.6693 48.0727 43.5467 48.0727 45.68C48.0727 47.8133 48.5207 49.712 49.4167 51.376C50.3127 53.04 51.5074 54.32 53.0007 55.216C54.4941 56.112 56.0941 56.56 57.8007 56.56ZM88.9792 24.624C87.6566 24.624 86.5259 24.176 85.5872 23.28C84.6912 22.3413 84.2432 21.2107 84.2432 19.888C84.2432 18.5653 84.6912 17.456 85.5872 16.56C86.5259 15.6213 87.6566 15.152 88.9792 15.152C90.3019 15.152 91.4112 15.6213 92.3072 16.56C93.2459 17.456 93.7152 18.5653 93.7152 19.888C93.7152 21.2107 93.2459 22.3413 92.3072 23.28C91.4112 24.176 90.3019 24.624 88.9792 24.624ZM85.4592 29.36H92.4992V62H85.4592V29.36ZM118.611 63.024C115.369 63.024 112.446 62.2773 109.843 60.784C107.283 59.2907 105.278 57.2427 103.827 54.64C102.419 51.9947 101.715 49.008 101.715 45.68C101.715 42.352 102.419 39.3867 103.827 36.784C105.278 34.1387 107.283 32.0693 109.843 30.576C112.446 29.0827 115.369 28.336 118.611 28.336C122.195 28.336 125.246 29.1467 127.763 30.768C130.281 32.3893 132.073 34.5867 133.139 37.36L126.675 40.048C125.225 36.592 122.473 34.864 118.419 34.864C116.67 34.864 115.049 35.312 113.555 36.208C112.105 37.104 110.931 38.384 110.035 40.048C109.182 41.6693 108.755 43.5467 108.755 45.68C108.755 47.8133 109.182 49.712 110.035 51.376C110.931 53.04 112.105 54.32 113.555 55.216C115.049 56.112 116.67 56.56 118.419 56.56C120.467 56.56 122.217 56.112 123.667 55.216C125.161 54.2773 126.291 52.9547 127.059 51.248L133.395 54C132.158 56.7733 130.281 58.9707 127.763 60.592C125.246 62.2133 122.195 63.024 118.611 63.024ZM155.006 62.512C153.555 62.512 152.19 62.2773 150.91 61.808C149.63 61.3387 148.584 60.72 147.774 59.952C145.939 58.1173 145.022 55.6213 145.022 52.464V35.568H139.326V29.36H145.022V20.144H152.062V29.36H159.998V35.568H152.062V50.928C152.062 52.6773 152.403 53.9147 153.086 54.64C153.726 55.4933 154.835 55.92 156.414 55.92C157.139 55.92 157.779 55.8347 158.334 55.664C158.888 55.4507 159.486 55.1307 160.126 54.704V61.552C158.718 62.192 157.011 62.512 155.006 62.512ZM173.597 24.624C172.274 24.624 171.143 24.176 170.205 23.28C169.309 22.3413 168.861 21.2107 168.861 19.888C168.861 18.5653 169.309 17.456 170.205 16.56C171.143 15.6213 172.274 15.152 173.597 15.152C174.919 15.152 176.029 15.6213 176.925 16.56C177.863 17.456 178.333 18.5653 178.333 19.888C178.333 21.2107 177.863 22.3413 176.925 23.28C176.029 24.176 174.919 24.624 173.597 24.624ZM170.077 29.36H177.117V62H170.077V29.36ZM203.421 63.024C200.135 63.024 197.191 62.2773 194.589 60.784C191.986 59.248 189.959 57.1573 188.509 54.512C187.058 51.8667 186.333 48.9227 186.333 45.68C186.333 42.4373 187.058 39.4933 188.509 36.848C189.959 34.2027 191.986 32.1333 194.589 30.64C197.191 29.104 200.135 28.336 203.421 28.336C206.706 28.336 209.65 29.104 212.253 30.64C214.855 32.176 216.882 34.2667 218.333 36.912C219.783 39.5573 220.509 42.48 220.509 45.68C220.509 48.9227 219.783 51.8667 218.333 54.512C216.882 57.1573 214.855 59.248 212.253 60.784C209.65 62.2773 206.706 63.024 203.421 63.024ZM203.421 56.56C205.213 56.56 206.877 56.1333 208.413 55.28C209.949 54.384 211.165 53.1253 212.061 51.504C212.999 49.84 213.469 47.8987 213.469 45.68C213.469 43.4613 212.999 41.5413 212.061 39.92C211.165 38.2987 209.949 37.0613 208.413 36.208C206.877 35.312 205.213 34.864 203.421 34.864C201.629 34.864 199.965 35.312 198.429 36.208C196.893 37.0613 195.655 38.2987 194.717 39.92C193.821 41.5413 193.373 43.4613 193.373 45.68C193.373 47.8987 193.821 49.84 194.717 51.504C195.655 53.1253 196.893 54.384 198.429 55.28C199.965 56.1333 201.629 56.56 203.421 56.56ZM228.935 29.36H235.655V33.648H235.975C236.913 32.112 238.3 30.8533 240.135 29.872C242.012 28.848 243.996 28.336 246.087 28.336C250.055 28.336 253.063 29.5093 255.111 31.856C257.201 34.16 258.247 37.3173 258.247 41.328V62H251.207V42.288C251.207 39.728 250.567 37.8507 249.287 36.656C248.049 35.4613 246.321 34.864 244.103 34.864C242.524 34.864 241.116 35.312 239.879 36.208C238.641 37.0613 237.681 38.2133 236.999 39.664C236.316 41.1147 235.975 42.672 235.975 44.336V62H228.935V29.36ZM278.672 63.024C276.326 63.024 274.235 62.576 272.4 61.68C270.566 60.7413 269.136 59.44 268.112 57.776C267.088 56.0693 266.576 54.1493 266.576 52.016C266.576 48.6453 267.835 45.9787 270.352 44.016C272.912 42.0533 276.134 41.072 280.016 41.072C281.936 41.072 283.664 41.264 285.2 41.648C286.736 41.9893 287.952 42.3733 288.848 42.8V41.136C288.848 39.1307 288.102 37.5093 286.608 36.272C285.115 34.992 283.195 34.352 280.848 34.352C279.184 34.352 277.606 34.7147 276.112 35.44C274.662 36.1653 273.488 37.168 272.592 38.448L267.664 34.672C269.115 32.6667 270.992 31.1093 273.296 30C275.6 28.8907 278.16 28.336 280.976 28.336C285.712 28.336 289.36 29.5093 291.92 31.856C294.48 34.16 295.76 37.424 295.76 41.648V62H288.848V58.096H288.528C287.59 59.504 286.267 60.6773 284.56 61.616C282.854 62.5547 280.891 63.024 278.672 63.024ZM279.888 57.2C281.595 57.2 283.131 56.7947 284.496 55.984C285.862 55.1733 286.928 54.0853 287.696 52.72C288.464 51.3547 288.848 49.8827 288.848 48.304C287.867 47.7493 286.715 47.3013 285.392 46.96C284.112 46.6187 282.768 46.448 281.36 46.448C278.715 46.448 276.774 46.9813 275.536 48.048C274.299 49.072 273.68 50.416 273.68 52.08C273.68 53.5733 274.256 54.8107 275.408 55.792C276.56 56.7307 278.054 57.2 279.888 57.2ZM305.992 29.36H312.712V34.16H313.032C313.758 32.496 315.016 31.1307 316.808 30.064C318.6 28.9547 320.499 28.4 322.504 28.4C324.083 28.4 325.406 28.6133 326.472 29.04V36.336C324.595 35.6533 322.91 35.312 321.416 35.312C319.795 35.312 318.344 35.7387 317.064 36.592C315.827 37.4453 314.846 38.5973 314.12 40.048C313.395 41.456 313.032 43.0133 313.032 44.72V62H305.992V29.36ZM345.849 60.208L332.281 29.36H340.153L349.369 51.568H349.625L358.585 29.36H366.329L346.169 75.824H338.745L345.849 60.208Z" fill="white"/>
</svg>
