<svg width="1440" height="1024" viewBox="0 0 1440 1024" fill="none" xmlns="http://www.w3.org/2000/svg">
<g filter="url(#filter0_f_32_5)">
<path fill-rule="evenodd" clip-rule="evenodd" d="M1534.6 49.5696C1531.33 -15.9035 1508 -78.7866 1467.78 -130.549L1393.77 -73.0362C1422.2 -36.4588 1438.68 7.97697 1440.99 54.2429C1443.3 100.509 1431.32 146.366 1406.68 185.592C1382.04 224.819 1345.93 255.517 1303.25 273.521C1260.57 291.526 1213.38 295.965 1168.09 286.238L1148.41 377.877C1212.5 391.642 1279.28 385.359 1339.68 359.88C1400.08 334.401 1451.18 290.959 1486.05 235.448C1520.92 179.937 1537.87 115.043 1534.6 49.5696ZM320 370.5C320 302.325 298.193 235.938 257.766 181.042C217.34 126.147 160.414 85.6218 95.3097 65.3913C30.2057 45.1608 -39.6626 46.2855 -104.082 68.6012C-168.501 90.9168 -224.093 133.253 -262.732 189.421C-301.37 245.59 -321.029 312.645 -318.834 380.784C-316.64 448.924 -292.707 514.575 -250.535 568.141C-208.362 621.707 -150.161 660.378 -84.4396 678.502C-18.7181 696.627 51.0778 693.254 114.745 668.876L66.2525 542.227C29.6094 556.257 -10.5608 558.199 -48.386 547.767C-86.2113 537.336 -119.708 515.079 -143.98 484.25C-168.252 453.421 -182.026 415.636 -183.289 376.419C-184.552 337.202 -173.238 298.609 -151 266.282C-128.762 233.955 -96.7665 209.589 -59.6908 196.746C-22.6151 183.902 17.5967 183.255 55.0666 194.898C92.5365 206.542 125.3 229.865 148.567 261.46C171.834 293.054 184.384 331.263 184.384 370.5H320ZM1573 1106.5C1573 1064.54 1564.74 1023 1548.68 984.233C1532.62 945.469 1509.09 910.248 1479.42 880.579C1449.75 850.911 1414.53 827.377 1375.77 811.32C1337 795.264 1295.46 787 1253.5 787C1211.54 787 1170 795.264 1131.23 811.32C1092.47 827.377 1057.25 850.911 1027.58 880.579C997.911 910.248 974.377 945.469 958.32 984.233C942.264 1023 934 1064.54 934 1106.5H1069.62C1069.62 1082.35 1074.37 1058.44 1083.61 1036.13C1092.85 1013.82 1106.4 993.549 1123.47 976.474C1140.55 959.399 1160.82 945.854 1183.13 936.613C1205.44 927.372 1229.35 922.615 1253.5 922.615C1277.65 922.615 1301.56 927.372 1323.87 936.613C1346.18 945.854 1366.45 959.399 1383.53 976.474C1400.6 993.549 1414.15 1013.82 1423.39 1036.13C1432.63 1058.44 1437.38 1082.35 1437.38 1106.5H1573Z" fill="#1F2987"/>
</g>
<g filter="url(#filter1_f_32_5)">
<path fill-rule="evenodd" clip-rule="evenodd" d="M1297 74C1297 101.614 1274.61 124 1247 124C1219.39 124 1197 101.614 1197 74C1197 46.3858 1219.39 24 1247 24C1274.61 24 1297 46.3858 1297 74ZM50 365C50 392.614 27.6142 415 0 415C-27.6142 415 -50 392.614 -50 365C-50 337.386 -27.6142 315 0 315C27.6142 315 50 337.386 50 365ZM1247 1095C1274.61 1095 1297 1072.61 1297 1045C1297 1017.39 1274.61 995 1247 995C1219.39 995 1197 1017.39 1197 1045C1197 1072.61 1219.39 1095 1247 1095Z" fill="white"/>
</g>
<defs>
<filter id="filter0_f_32_5" x="-332" y="-143.549" width="1918" height="1263.05" filterUnits="userSpaceOnUse" color-interpolation-filters="sRGB">
<feFlood flood-opacity="0" result="BackgroundImageFix"/>
<feBlend mode="normal" in="SourceGraphic" in2="BackgroundImageFix" result="shape"/>
<feGaussianBlur stdDeviation="6.5" result="effect1_foregroundBlur_32_5"/>
</filter>
<filter id="filter1_f_32_5" x="-66" y="8" width="1379" height="1103" filterUnits="userSpaceOnUse" color-interpolation-filters="sRGB">
<feFlood flood-opacity="0" result="BackgroundImageFix"/>
<feBlend mode="normal" in="SourceGraphic" in2="BackgroundImageFix" result="shape"/>
<feGaussianBlur stdDeviation="8" result="effect1_foregroundBlur_32_5"/>
</filter>
</defs>
</svg>
